<svg xmlns="http://www.w3.org/2000/svg" id="flag-icons-gb" viewBox="0 0 640 480"><path fill="#012169" d="M0 0h640v480H0z"/><path fill="#FFF" d="M75 0l215 161V0h60v161L565 0h75v60L460 240l180 120v60h-75L350 319v161h-60V319L75 420H0v-60l180-120L0 60V0h75z"/><path fill="#C8102E" d="M424 280l216 160v-40L457 280h-33zm-208 0L0 400v40l216-160h-33zM640 0v3L391 184h49L640 37V0zm0 480v-3L391 296h49l200 147v37zM249 184L0 3v40l183 141h66zm0 112L0 477v3h75l174-130v-33z"/><path fill="#FFF" d="M249 0h142v480H249zM0 160h640v160H0z"/><path fill="#C8102E" d="M0 192h640v96H0zM281 0h78v480h-78z"/></svg>